<svg xmlns="http://www.w3.org/2000/svg" xmlns:xlink="http://www.w3.org/1999/xlink" width="500"
    zoomAndPan="magnify" viewBox="0 0 375 374.999991" height="500"
    preserveAspectRatio="xMidYMid meet" version="1.0">
    <defs>
        <clipPath id="b06c864c9e">
            <path d="M 40.222656 298 L 93 298 L 93 349 L 40.222656 349 Z M 40.222656 298 "
                clip-rule="nonzero" />
        </clipPath>
    </defs>
    <path fill="#ff914d"
        d="M 325.484375 175.757812 C 324.484375 178.605469 322.707031 181.339844 320.230469 183.71875 C 312.253906 191.40625 257.03125 201.386719 236.273438 204.910156 C 231.390625 205.742188 228.414062 206.214844 228.414062 206.214844 L 212.761719 184.003906 C 212.761719 184.003906 294.4375 149.871094 311.652344 154.453125 C 324.546875 157.890625 328.472656 167.28125 325.484375 175.757812 Z M 325.484375 175.757812 "
        fill-opacity="1" fill-rule="nonzero" />
    <path fill="#ff914d"
        d="M 325.484375 175.757812 C 324.484375 178.605469 322.707031 181.339844 320.230469 183.71875 C 312.253906 191.40625 257.03125 201.386719 236.273438 204.910156 C 235.929688 199.246094 235.40625 192.703125 235.40625 192.703125 C 235.40625 192.703125 302.183594 184.449219 317.066406 177.140625 C 319.546875 175.929688 322.457031 175.527344 325.484375 175.757812 Z M 325.484375 175.757812 "
        fill-opacity="1" fill-rule="nonzero" />
    <path fill="#2b2b2b"
        d="M 213.761719 184.296875 C 219.074219 191.441406 224.21875 198.421875 229.261719 205.613281 L 228.25 205.1875 C 237.835938 202.617188 247.550781 200.855469 257.261719 199.0625 C 266.964844 197.238281 276.640625 195.296875 286.246094 193.097656 C 291.046875 191.992188 295.828125 190.820312 300.554688 189.515625 C 305.273438 188.207031 309.988281 186.789062 314.355469 184.921875 C 314.917969 184.703125 315.417969 184.429688 315.945312 184.179688 C 316.199219 184.050781 316.472656 183.925781 316.714844 183.792969 L 317.421875 183.367188 C 317.648438 183.222656 317.917969 183.09375 318.101562 182.941406 L 318.664062 182.492188 C 318.855469 182.371094 319.054688 182.15625 319.253906 181.953125 C 319.449219 181.75 319.660156 181.558594 319.84375 181.339844 C 321.367188 179.671875 322.621094 177.769531 323.4375 175.707031 C 324.277344 173.660156 324.632812 171.453125 324.472656 169.3125 C 324.3125 167.164062 323.546875 165.113281 322.355469 163.316406 C 321.132812 161.53125 319.453125 160.03125 317.53125 158.855469 C 315.59375 157.691406 313.433594 156.820312 311.179688 156.199219 C 310.222656 155.945312 309.09375 155.835938 307.945312 155.824219 C 306.796875 155.8125 305.617188 155.855469 304.429688 155.972656 C 302.054688 156.175781 299.652344 156.570312 297.265625 157.019531 C 292.484375 157.933594 287.71875 159.144531 282.976562 160.457031 C 278.242188 161.769531 273.53125 163.214844 268.832031 164.71875 C 259.445312 167.738281 250.113281 170.972656 240.839844 174.375 C 236.203125 176.074219 231.578125 177.8125 226.964844 179.582031 L 220.050781 182.246094 L 216.597656 183.601562 L 214.878906 184.28125 L 213.375 184.882812 L 213.265625 184.925781 C 213.28125 184.921875 213.15625 184.976562 213.289062 184.914062 C 213.515625 184.808594 213.726562 184.523438 213.761719 184.296875 Z M 211.765625 183.71875 C 211.835938 183.476562 212.085938 183.179688 212.34375 183.0625 L 212.46875 183.003906 L 212.578125 182.957031 L 212.792969 182.867188 L 213.21875 182.683594 L 214.074219 182.320312 L 215.785156 181.597656 L 219.210938 180.160156 L 226.082031 177.335938 C 230.671875 175.480469 235.28125 173.660156 239.902344 171.875 C 249.144531 168.316406 258.445312 164.871094 267.855469 161.726562 C 272.566406 160.160156 277.296875 158.65625 282.078125 157.273438 C 286.859375 155.898438 291.679688 154.617188 296.601562 153.621094 C 299.066406 153.132812 301.546875 152.695312 304.101562 152.445312 C 305.375 152.3125 306.675781 152.246094 307.996094 152.246094 C 309.320312 152.253906 310.675781 152.339844 312.113281 152.703125 C 314.636719 153.367188 317.121094 154.328125 319.441406 155.6875 C 321.746094 157.0625 323.867188 158.890625 325.46875 161.179688 C 327.046875 163.472656 328.070312 166.207031 328.28125 169 C 328.5 171.789062 328.039062 174.597656 327.015625 177.128906 C 326.015625 179.675781 324.503906 181.96875 322.707031 183.957031 C 322.488281 184.214844 322.242188 184.441406 322.011719 184.679688 C 321.78125 184.921875 321.558594 185.160156 321.242188 185.398438 L 320.351562 186.109375 C 320.054688 186.34375 319.765625 186.484375 319.46875 186.675781 L 318.582031 187.207031 C 318.289062 187.367188 317.992188 187.503906 317.699219 187.652344 C 317.109375 187.9375 316.519531 188.253906 315.929688 188.488281 C 311.203125 190.527344 306.417969 191.964844 301.617188 193.324219 C 296.8125 194.667969 291.988281 195.863281 287.148438 196.996094 C 277.476562 199.25 267.757812 201.230469 258.027344 203.097656 C 248.292969 204.972656 238.523438 206.65625 228.574219 207.242188 L 227.9375 207.34375 L 227.5625 206.816406 C 222.179688 199.199219 216.890625 191.378906 211.765625 183.71875 Z M 211.765625 183.71875 "
        fill-opacity="1" fill-rule="nonzero" />
    <path fill="#ff914d"
        d="M 324.5 183.597656 C 312.492188 196.164062 298.1875 189.066406 298.1875 189.066406 L 296.820312 187.847656 C 295.636719 186.789062 294.519531 185.6875 293.472656 184.539062 C 286.6875 177.078125 282.828125 167.785156 282.632812 158.1875 C 282.632812 158.1875 296.386719 146.257812 312.359375 147.660156 C 314.679688 147.863281 316.839844 148.5 318.792969 149.484375 C 330.277344 155.242188 334.753906 172.855469 324.5 183.597656 Z M 324.5 183.597656 "
        fill-opacity="1" fill-rule="nonzero" />
    <path fill="#ff914d"
        d="M 324.5 183.597656 C 312.492188 196.164062 298.1875 189.066406 298.1875 189.066406 L 296.820312 187.847656 C 295.636719 186.789062 294.519531 185.6875 293.472656 184.539062 L 293.960938 183.507812 C 293.960938 183.507812 304.382812 185.78125 315.066406 179.699219 C 323.855469 174.699219 322.707031 159.027344 318.792969 149.484375 C 330.277344 155.242188 334.753906 172.855469 324.5 183.597656 Z M 324.5 183.597656 "
        fill-opacity="1" fill-rule="nonzero" />
    <path fill="#2b2b2b"
        d="M 283.3125 158.972656 C 284.03125 157.367188 283.511719 158.53125 283.671875 158.175781 L 283.671875 158.203125 L 283.675781 158.234375 L 283.675781 158.300781 L 283.683594 158.4375 L 283.695312 158.707031 L 283.722656 159.25 C 283.742188 159.609375 283.75 159.972656 283.785156 160.332031 C 283.867188 161.050781 283.914062 161.769531 284.019531 162.484375 C 284.230469 163.914062 284.5 165.335938 284.871094 166.734375 C 285.597656 169.535156 286.644531 172.25 287.96875 174.824219 C 289.296875 177.398438 290.902344 179.832031 292.734375 182.074219 C 293.65625 183.199219 294.628906 184.273438 295.65625 185.304688 C 296.683594 186.324219 297.757812 187.296875 298.878906 188.292969 L 298.648438 188.136719 C 299.589844 188.441406 300.664062 188.722656 301.699219 188.914062 C 302.746094 189.121094 303.796875 189.253906 304.84375 189.34375 C 306.941406 189.503906 309.03125 189.394531 311.0625 189.042969 C 313.105469 188.710938 315.03125 187.957031 316.894531 187.097656 L 318.238281 186.328125 L 318.910156 185.945312 L 319.539062 185.484375 L 320.792969 184.558594 C 321.007812 184.417969 321.203125 184.238281 321.390625 184.054688 L 321.964844 183.519531 C 325.15625 180.800781 327.253906 177.109375 328.085938 173.070312 C 328.941406 169.042969 328.441406 164.734375 326.886719 160.886719 C 325.289062 157.070312 322.660156 153.609375 319.132812 151.496094 C 317.386719 150.4375 315.453125 149.671875 313.429688 149.335938 C 312.917969 149.28125 312.429688 149.164062 311.890625 149.152344 L 310.296875 149.078125 L 309.496094 149.035156 C 309.234375 149.03125 308.964844 149.058594 308.699219 149.066406 L 307.09375 149.140625 C 298.546875 149.828125 290.195312 153.722656 283.3125 158.972656 Z M 281.953125 157.40625 C 285.488281 154.382812 289.363281 151.972656 293.53125 150.011719 C 294.582031 149.539062 295.628906 149.058594 296.714844 148.667969 C 297.785156 148.230469 298.894531 147.898438 300 147.554688 C 300.546875 147.367188 301.117188 147.242188 301.679688 147.105469 L 303.375 146.707031 L 305.105469 146.441406 C 305.683594 146.363281 306.253906 146.234375 306.84375 146.21875 L 308.597656 146.101562 C 308.890625 146.089844 309.183594 146.054688 309.472656 146.054688 L 310.355469 146.078125 L 312.117188 146.132812 C 312.707031 146.136719 313.320312 146.257812 313.917969 146.316406 C 316.328125 146.671875 318.660156 147.535156 320.765625 148.757812 C 322.871094 149.976562 324.738281 151.585938 326.285156 153.4375 C 327.84375 155.285156 329.113281 157.363281 330.027344 159.585938 C 331.851562 164.023438 332.472656 169 331.503906 173.761719 C 331.03125 176.136719 330.175781 178.449219 328.960938 180.5625 C 327.761719 182.671875 326.167969 184.601562 324.382812 186.148438 L 323.726562 186.761719 C 323.515625 186.972656 323.296875 187.171875 323.046875 187.34375 L 321.605469 188.421875 L 320.878906 188.957031 L 320.09375 189.414062 L 318.523438 190.320312 C 317.980469 190.589844 317.414062 190.8125 316.859375 191.050781 L 316.023438 191.402344 C 315.738281 191.507812 315.441406 191.582031 315.152344 191.671875 C 314.570312 191.839844 313.988281 192.023438 313.40625 192.175781 L 311.613281 192.484375 C 309.21875 192.808594 306.789062 192.761719 304.445312 192.34375 C 303.273438 192.128906 302.121094 191.84375 301.003906 191.453125 C 299.871094 191.078125 298.820312 190.617188 297.722656 189.992188 L 297.574219 189.90625 L 297.496094 189.835938 C 296.390625 188.859375 295.261719 187.839844 294.183594 186.765625 C 293.109375 185.6875 292.085938 184.566406 291.125 183.386719 C 289.203125 181.03125 287.515625 178.476562 286.121094 175.769531 C 284.726562 173.066406 283.621094 170.203125 282.855469 167.25 C 282.464844 165.777344 282.179688 164.277344 281.960938 162.765625 C 281.847656 162.011719 281.792969 161.25 281.710938 160.492188 C 281.675781 160.113281 281.667969 159.730469 281.644531 159.351562 L 281.617188 158.777344 L 281.601562 158.492188 L 281.597656 158.347656 L 281.597656 158.277344 L 281.59375 158.242188 L 281.59375 158.214844 C 281.753906 157.855469 281.238281 159.019531 281.953125 157.40625 Z M 281.953125 157.40625 "
        fill-opacity="1" fill-rule="nonzero" />
    <path fill="#ff914d"
        d="M 160.898438 168.929688 L 144.59375 178.949219 L 137.753906 183.15625 C 137.753906 183.15625 96.789062 157.292969 75.089844 139.46875 C 68.386719 133.960938 63.527344 129.21875 62.269531 126.238281 C 56.960938 113.621094 64.085938 100.144531 81.710938 102.726562 C 99.335938 105.316406 160.898438 168.929688 160.898438 168.929688 Z M 160.898438 168.929688 "
        fill-opacity="1" fill-rule="nonzero" />
    <path fill="#ff914d"
        d="M 144.59375 178.949219 L 137.753906 183.15625 C 137.753906 183.15625 96.789062 157.292969 75.089844 139.46875 L 87.21875 137.230469 C 87.214844 137.230469 125.640625 166.550781 144.59375 178.949219 Z M 144.59375 178.949219 "
        fill-opacity="1" fill-rule="nonzero" />
    <path fill="#2b2b2b"
        d="M 161.929688 169.058594 C 154.195312 174.070312 146.253906 179.167969 138.300781 184.035156 L 137.746094 184.375 L 137.203125 184.027344 L 137.199219 184.027344 C 128.769531 178.8125 120.457031 173.4375 112.195312 167.976562 C 103.933594 162.511719 95.753906 156.910156 87.726562 151.082031 C 83.714844 148.164062 79.738281 145.183594 75.84375 142.085938 C 71.949219 138.972656 68.109375 135.792969 64.570312 132.101562 C 64.117188 131.65625 63.707031 131.140625 63.277344 130.652344 C 63.0625 130.402344 62.847656 130.167969 62.640625 129.90625 L 62.042969 129.085938 C 61.847656 128.800781 61.636719 128.5625 61.457031 128.238281 L 60.929688 127.261719 C 60.738281 126.929688 60.628906 126.625 60.511719 126.316406 C 60.394531 126.003906 60.257812 125.703125 60.160156 125.386719 C 59.292969 122.878906 58.804688 120.207031 58.886719 117.503906 C 58.933594 114.804688 59.601562 112.078125 60.882812 109.632812 C 62.15625 107.175781 64.140625 105.09375 66.460938 103.609375 C 68.800781 102.140625 71.445312 101.289062 74.089844 100.917969 C 76.738281 100.570312 79.394531 100.652344 81.96875 101.019531 C 83.425781 101.246094 84.707031 101.691406 85.925781 102.195312 C 87.140625 102.710938 88.308594 103.273438 89.429688 103.894531 C 91.679688 105.113281 93.800781 106.480469 95.882812 107.890625 C 104.15625 113.578125 111.753906 120 119.1875 126.582031 C 126.609375 133.175781 133.851562 139.949219 140.898438 146.917969 C 144.421875 150.402344 147.953125 153.878906 151.394531 157.441406 L 156.554688 162.789062 L 159.113281 165.484375 L 160.382812 166.839844 L 161.015625 167.519531 L 161.328125 167.863281 L 161.488281 168.035156 L 161.566406 168.121094 L 161.660156 168.226562 C 161.851562 168.433594 161.957031 168.804688 161.929688 169.058594 Z M 159.867188 168.796875 C 159.808594 169.023438 159.890625 169.367188 160.054688 169.550781 C 160.152344 169.65625 160.058594 169.558594 160.070312 169.570312 L 159.988281 169.488281 L 159.820312 169.328125 L 159.488281 169.003906 L 158.828125 168.359375 L 157.496094 167.070312 L 154.839844 164.488281 L 149.5 159.351562 C 145.914062 155.949219 142.367188 152.511719 138.761719 149.140625 C 131.539062 142.398438 124.308594 135.679688 116.886719 129.1875 C 113.179688 125.941406 109.414062 122.765625 105.601562 119.664062 C 101.792969 116.5625 97.914062 113.546875 93.898438 110.789062 C 91.890625 109.417969 89.847656 108.09375 87.753906 106.953125 C 86.710938 106.371094 85.652344 105.855469 84.589844 105.402344 C 83.53125 104.957031 82.449219 104.597656 81.460938 104.441406 C 79.144531 104.101562 76.808594 104.035156 74.550781 104.320312 C 72.300781 104.628906 70.140625 105.332031 68.277344 106.492188 C 66.433594 107.671875 64.886719 109.277344 63.871094 111.21875 C 62.855469 113.152344 62.289062 115.351562 62.246094 117.597656 C 62.167969 119.84375 62.570312 122.121094 63.3125 124.289062 C 63.394531 124.5625 63.515625 124.824219 63.613281 125.09375 C 63.71875 125.363281 63.816406 125.644531 63.945312 125.839844 L 64.296875 126.5 C 64.410156 126.722656 64.609375 126.957031 64.761719 127.179688 L 65.246094 127.863281 C 65.417969 128.089844 65.621094 128.3125 65.804688 128.535156 C 66.191406 128.980469 66.542969 129.4375 66.96875 129.863281 C 70.246094 133.347656 74.003906 136.542969 77.808594 139.640625 C 81.621094 142.738281 85.539062 145.730469 89.496094 148.671875 C 105.382812 160.367188 121.769531 171.464844 138.308594 182.269531 L 138.3125 182.269531 L 137.214844 182.261719 C 144.683594 177.652344 152.167969 173.269531 159.867188 168.796875 Z M 159.867188 168.796875 "
        fill-opacity="1" fill-rule="nonzero" />
    <path fill="#ff914d"
        d="M 106.898438 117.625 C 103.035156 126.144531 96.082031 133.027344 87.222656 137.230469 C 85.597656 138.007812 83.90625 138.683594 82.15625 139.273438 L 80.417969 139.847656 C 80.417969 139.847656 64.472656 140.730469 58.40625 124.433594 C 55.296875 116.082031 58.03125 107.554688 63.492188 101.902344 C 68.679688 96.535156 76.324219 93.765625 83.75 96.210938 C 98.96875 101.230469 106.898438 117.625 106.898438 117.625 Z M 106.898438 117.625 "
        fill-opacity="1" fill-rule="nonzero" />
    <path fill="#ff914d"
        d="M 89.640625 135.476562 L 87.222656 137.230469 C 85.597656 138.003906 83.90625 138.683594 82.15625 139.269531 L 80.417969 139.847656 C 80.417969 139.847656 64.472656 140.726562 58.40625 124.429688 C 55.296875 116.078125 58.03125 107.554688 63.492188 101.902344 C 62.222656 109.066406 59.652344 135.191406 89.640625 135.476562 Z M 89.640625 135.476562 "
        fill-opacity="1" fill-rule="nonzero" />
    <path fill="#2b2b2b"
        d="M 78.207031 96.363281 C 73.195312 96.363281 68.140625 98.570312 64.210938 102.65625 C 58.511719 108.574219 56.660156 116.78125 59.375 124.074219 C 64.871094 138.828125 78.617188 138.863281 80.226562 138.816406 L 81.824219 138.285156 C 92.558594 134.6875 101.25 127.183594 105.742188 117.644531 C 104.375 115.0625 96.683594 101.566406 83.417969 97.191406 C 81.722656 96.636719 79.964844 96.363281 78.207031 96.363281 Z M 80.105469 140.894531 C 77.617188 140.894531 63.171875 140.210938 57.433594 124.796875 C 54.433594 116.75 56.457031 107.714844 62.714844 101.214844 C 68.589844 95.109375 76.777344 92.816406 84.074219 95.222656 C 99.539062 100.320312 107.503906 116.484375 107.835938 117.167969 L 108.046875 117.609375 L 107.847656 118.050781 C 103.179688 128.328125 93.9375 136.421875 82.484375 140.253906 L 80.617188 140.878906 L 80.476562 140.886719 C 80.460938 140.890625 80.332031 140.894531 80.105469 140.894531 Z M 80.105469 140.894531 "
        fill-opacity="1" fill-rule="nonzero" />
    <path fill="#ff914d"
        d="M 232.679688 366.535156 L 208.398438 370.996094 C 206.035156 371.433594 203.695312 371.265625 201.558594 370.605469 C 197.203125 369.269531 193.65625 365.894531 192.34375 361.367188 C 192.296875 361.207031 192.246094 361.050781 192.214844 360.890625 L 178.25 305.046875 C 176.734375 298.96875 154.601562 278.675781 154.351562 269.257812 L 155.695312 269.007812 L 168.648438 266.632812 L 162.503906 242.039062 C 160.550781 234.214844 165.945312 226.375 174.152344 225.109375 L 184.507812 223.519531 C 191.132812 222.5 197.535156 226.144531 199.824219 232.238281 L 241.601562 343.277344 L 243.460938 348.21875 C 246.46875 356.191406 241.316406 364.945312 232.679688 366.535156 Z M 232.679688 366.535156 "
        fill-opacity="1" fill-rule="nonzero" />
    <path fill="#ff914d"
        d="M 206.863281 346.140625 L 201.558594 370.605469 C 197.203125 369.269531 193.65625 365.894531 192.34375 361.367188 C 192.296875 361.207031 192.246094 361.050781 192.214844 360.890625 L 178.25 305.046875 C 176.734375 298.96875 154.601562 278.675781 154.351562 269.257812 L 155.695312 269.007812 L 183.132812 283.046875 Z M 206.863281 346.140625 "
        fill-opacity="1" fill-rule="nonzero" />
    <path fill="#2b2b2b"
        d="M 245.472656 347.457031 C 246.195312 349.390625 246.546875 351.46875 246.472656 353.542969 C 246.398438 355.613281 245.902344 357.664062 245.042969 359.542969 C 243.332031 363.3125 240.085938 366.304688 236.265625 367.839844 C 235.78125 368.019531 235.300781 368.207031 234.8125 368.359375 L 233.316406 368.730469 C 232.382812 368.925781 231.550781 369.070312 230.660156 369.242188 L 225.414062 370.238281 L 214.917969 372.230469 L 209.671875 373.226562 C 209.230469 373.308594 208.820312 373.394531 208.273438 373.46875 C 207.761719 373.539062 207.25 373.628906 206.726562 373.636719 C 206.207031 373.660156 205.6875 373.699219 205.164062 373.660156 C 204.644531 373.640625 204.121094 373.625 203.605469 373.542969 C 199.464844 373.046875 195.519531 370.917969 192.859375 367.632812 C 192.515625 367.230469 192.230469 366.78125 191.921875 366.355469 C 191.632812 365.914062 191.378906 365.449219 191.113281 364.992188 C 190.878906 364.515625 190.664062 364.035156 190.445312 363.550781 L 189.941406 362.09375 C 189.761719 361.472656 189.671875 361.085938 189.5625 360.652344 L 189.234375 359.359375 L 188.578125 356.769531 L 185.96875 346.410156 L 180.859375 325.671875 L 175.871094 305.246094 C 175.65625 304.691406 175.238281 303.96875 174.820312 303.289062 C 174.375 302.597656 173.902344 301.894531 173.394531 301.203125 C 172.386719 299.804688 171.304688 298.417969 170.210938 297.035156 C 168.023438 294.257812 165.78125 291.476562 163.585938 288.636719 C 161.417969 285.777344 159.257812 282.886719 157.355469 279.769531 C 156.398438 278.214844 155.492188 276.617188 154.730469 274.910156 C 153.976562 273.203125 153.339844 271.359375 153.316406 269.285156 L 153.238281 268.402344 L 154.167969 268.234375 L 168.457031 265.609375 L 168.460938 265.605469 L 167.640625 266.882812 L 161.359375 242.433594 C 160.773438 240.238281 160.722656 237.859375 161.21875 235.617188 C 161.710938 233.375 162.734375 231.253906 164.15625 229.457031 C 165.578125 227.65625 167.414062 226.179688 169.484375 225.179688 C 170.523438 224.6875 171.605469 224.285156 172.722656 224.023438 C 173.878906 223.75 174.890625 223.617188 175.929688 223.445312 L 182.160156 222.449219 C 183.214844 222.289062 184.183594 222.101562 185.378906 221.984375 C 185.949219 221.925781 186.53125 221.925781 187.109375 221.917969 C 187.683594 221.957031 188.265625 221.953125 188.835938 222.054688 C 193.4375 222.601562 197.738281 225.375 200.128906 229.40625 C 200.402344 229.921875 200.710938 230.421875 200.921875 230.96875 L 201.261719 231.769531 L 201.546875 232.507812 L 202.671875 235.453125 L 204.925781 241.347656 L 209.429688 253.136719 Z M 241.453125 348.96875 L 206.386719 254.289062 L 202.003906 242.453125 L 199.8125 236.539062 L 198.71875 233.578125 L 198.441406 232.839844 L 198.167969 232.183594 C 198.007812 231.742188 197.757812 231.347656 197.546875 230.933594 C 195.675781 227.695312 192.226562 225.386719 188.460938 224.902344 C 187.996094 224.8125 187.519531 224.816406 187.046875 224.773438 C 186.574219 224.78125 186.097656 224.769531 185.625 224.816406 C 184.722656 224.890625 183.621094 225.078125 182.59375 225.226562 L 176.351562 226.152344 C 175.3125 226.304688 174.234375 226.449219 173.34375 226.652344 C 172.410156 226.855469 171.507812 227.179688 170.640625 227.578125 C 168.90625 228.378906 167.363281 229.589844 166.164062 231.074219 C 163.734375 234.03125 162.726562 238.101562 163.695312 241.851562 L 169.660156 266.378906 L 169.921875 267.460938 L 168.835938 267.652344 L 154.542969 270.28125 L 155.394531 269.230469 L 155.394531 269.234375 C 155.570312 270.730469 156.261719 272.277344 157.0625 273.761719 C 157.875 275.246094 158.851562 276.683594 159.875 278.085938 C 161.953125 280.878906 164.195312 283.597656 166.511719 286.261719 L 173.519531 294.324219 C 174.683594 295.691406 175.839844 297.074219 176.96875 298.527344 C 177.535156 299.25 178.09375 300.003906 178.632812 300.796875 C 179.164062 301.617188 179.710938 302.402344 180.171875 303.5 C 180.289062 303.777344 180.390625 304.113281 180.488281 304.421875 L 180.667969 305.085938 L 181.003906 306.378906 L 181.679688 308.964844 L 183.027344 314.136719 L 185.664062 324.496094 L 190.921875 345.210938 L 193.492188 355.585938 L 194.75 360.621094 C 195.167969 362.097656 195.832031 363.34375 196.75 364.488281 C 198.570312 366.753906 201.320312 368.273438 204.238281 368.667969 C 204.601562 368.738281 204.972656 368.746094 205.34375 368.765625 C 205.710938 368.804688 206.078125 368.773438 206.449219 368.761719 C 206.820312 368.765625 207.1875 368.699219 207.554688 368.65625 C 207.894531 368.625 208.359375 368.539062 208.796875 368.460938 L 214.054688 367.523438 L 224.574219 365.652344 L 229.832031 364.71875 C 230.695312 364.558594 231.617188 364.410156 232.433594 364.246094 L 233.53125 363.988281 C 233.890625 363.878906 234.238281 363.738281 234.597656 363.621094 C 237.378906 362.535156 239.769531 360.394531 241.042969 357.671875 C 242.332031 354.960938 242.480469 351.796875 241.453125 348.96875 Z M 241.453125 348.96875 "
        fill-opacity="1" fill-rule="nonzero" />
    <path fill="#ff914d"
        d="M 174.089844 255.859375 L 166.542969 275.871094 C 164.332031 277.625 160.328125 280.152344 155.683594 282.964844 C 144.769531 289.550781 130.289062 297.664062 127.109375 300.699219 L 87.273438 338.71875 L 85.472656 340.4375 C 84.660156 341.207031 83.78125 341.863281 82.847656 342.394531 C 77.722656 345.308594 71.023438 344.609375 66.394531 340.328125 L 48.25 323.582031 C 41.800781 317.625 42.121094 307.480469 48.925781 302.335938 L 51.46875 300.417969 L 147.78125 227.621094 C 152.976562 223.695312 160.335938 224.035156 165.394531 228.429688 L 173.296875 235.316406 C 179.554688 240.773438 179.921875 250.285156 174.089844 255.859375 Z M 174.089844 255.859375 "
        fill-opacity="1" fill-rule="nonzero" />
    <path fill="#f6f4f1"
        d="M 108.265625 266.398438 L 62.179688 299.140625 L 57.3125 298.375 L 54.714844 297.957031 L 52.105469 297.546875 L 104.085938 258.550781 L 104.886719 260.046875 L 105.679688 261.542969 Z M 108.265625 266.398438 "
        fill-opacity="1" fill-rule="nonzero" />
    <path fill="#ff914d"
        d="M 157.398438 278.945312 C 157.363281 279.171875 156.726562 280.636719 155.679688 282.964844 C 144.765625 289.550781 130.285156 297.664062 127.105469 300.699219 L 87.269531 338.71875 L 85.46875 340.4375 C 84.65625 341.207031 83.78125 341.863281 82.84375 342.394531 L 84.589844 313.507812 L 133.460938 275.949219 C 133.464844 275.945312 157.648438 277.453125 157.398438 278.945312 Z M 157.398438 278.945312 "
        fill-opacity="1" fill-rule="nonzero" />
    <path fill="#2b2b2b"
        d="M 173.191406 255.300781 L 173.121094 255.488281 L 165.703125 275.261719 C 165.367188 275.460938 165.039062 275.65625 164.722656 275.863281 L 164.242188 276.183594 L 163.667969 276.535156 C 162.90625 277.011719 162.152344 277.496094 161.367188 277.960938 C 159.832031 278.902344 158.25 279.800781 156.6875 280.710938 C 156.679688 280.710938 156.679688 280.714844 156.671875 280.714844 L 147.144531 286.089844 C 143.957031 287.867188 140.785156 289.691406 137.605469 291.523438 C 136.019531 292.429688 134.441406 293.375 132.871094 294.335938 C 131.296875 295.308594 129.730469 296.277344 128.160156 297.363281 L 126.984375 298.203125 L 125.773438 299.203125 L 123.769531 301.078125 L 119.796875 304.855469 L 111.851562 312.40625 L 96.011719 327.558594 L 88.097656 335.136719 L 84.136719 338.921875 C 83.773438 339.269531 83.394531 339.597656 83 339.886719 C 82.148438 340.523438 81.21875 341.039062 80.214844 341.402344 C 77.296875 342.503906 73.933594 342.359375 71.066406 341.054688 C 70.699219 340.910156 70.359375 340.71875 70.019531 340.523438 C 69.667969 340.34375 69.347656 340.109375 69.023438 339.886719 C 68.683594 339.679688 68.390625 339.417969 68.085938 339.160156 C 67.796875 338.933594 67.457031 338.613281 67.117188 338.300781 L 63.085938 334.589844 L 55.027344 327.167969 L 50.996094 323.453125 C 49.570312 322.160156 48.46875 321.140625 47.59375 319.804688 C 45.808594 317.195312 45.179688 313.847656 45.789062 310.78125 C 46.09375 309.242188 46.703125 307.777344 47.589844 306.488281 C 47.832031 306.183594 48.027344 305.84375 48.296875 305.5625 C 48.566406 305.285156 48.824219 304.988281 49.101562 304.710938 L 49.992188 303.949219 C 50.316406 303.6875 50.714844 303.402344 51.066406 303.128906 L 57.316406 298.375 L 105.683594 261.546875 L 120.820312 250.015625 L 138.238281 236.710938 L 146.945312 230.050781 L 148.03125 229.214844 L 148.574219 228.804688 L 149.085938 228.441406 C 149.410156 228.199219 149.761719 227.992188 150.125 227.792969 C 150.46875 227.578125 150.851562 227.429688 151.21875 227.253906 C 152.722656 226.585938 154.367188 226.277344 156.011719 226.261719 C 157.660156 226.261719 159.320312 226.554688 160.859375 227.183594 C 161.617188 227.5 162.367188 227.867188 163.058594 228.324219 C 163.414062 228.546875 163.757812 228.78125 164.078125 229.050781 L 164.570312 229.441406 L 165.089844 229.882812 L 169.246094 233.460938 L 171.324219 235.246094 L 172.363281 236.136719 C 172.695312 236.429688 172.96875 236.722656 173.285156 237.011719 C 175.636719 239.386719 177.058594 242.675781 177.09375 246.039062 L 177.09375 246.265625 C 177.09375 249.546875 175.75 252.808594 173.375 255.105469 Z M 175.03125 235.300781 C 174.679688 234.960938 174.320312 234.585938 173.972656 234.277344 L 172.945312 233.371094 L 170.890625 231.5625 L 166.777344 227.933594 L 166.261719 227.484375 L 165.6875 227.011719 C 165.3125 226.6875 164.90625 226.40625 164.480469 226.132812 C 163.660156 225.574219 162.765625 225.121094 161.851562 224.726562 C 160.015625 223.953125 158.011719 223.5625 156.011719 223.542969 C 154.011719 223.53125 151.988281 223.890625 150.132812 224.679688 C 149.675781 224.886719 149.203125 225.070312 148.769531 225.332031 C 148.324219 225.566406 147.886719 225.816406 147.480469 226.113281 L 146.863281 226.535156 L 146.308594 226.953125 L 145.214844 227.769531 L 136.425781 234.320312 L 118.875 247.449219 L 104.082031 258.550781 L 52.105469 297.546875 L 48.753906 300.0625 C 48.378906 300.34375 48.03125 300.59375 47.644531 300.90625 L 46.453125 301.917969 C 46.085938 302.285156 45.734375 302.671875 45.378906 303.054688 C 45.019531 303.445312 44.742188 303.882812 44.425781 304.300781 C 43.226562 306.019531 42.40625 307.984375 42 310.03125 C 41.179688 314.109375 42.015625 318.507812 44.34375 321.957031 C 44.597656 322.40625 44.957031 322.789062 45.261719 323.203125 C 45.570312 323.625 45.929688 324 46.289062 324.367188 L 46.828125 324.921875 C 47.015625 325.105469 47.167969 325.238281 47.34375 325.398438 L 48.347656 326.335938 L 52.367188 330.050781 L 60.40625 337.492188 L 64.429688 341.21875 C 64.761719 341.527344 65.082031 341.828125 65.503906 342.175781 C 65.898438 342.507812 66.292969 342.851562 66.730469 343.128906 C 67.152344 343.429688 67.582031 343.734375 68.039062 343.976562 C 68.492188 344.230469 68.945312 344.488281 69.421875 344.683594 C 73.210938 346.414062 77.679688 346.628906 81.621094 345.160156 C 83.585938 344.441406 85.414062 343.277344 86.910156 341.835938 L 90.878906 338.0625 L 98.816406 330.507812 L 114.699219 315.394531 L 122.605469 307.8125 L 126.558594 304.015625 L 128.527344 302.117188 L 129.414062 301.363281 L 130.457031 300.59375 C 133.3125 298.542969 136.453125 296.644531 139.523438 294.710938 L 148.84375 288.972656 C 151.953125 287.050781 155.0625 285.121094 158.132812 283.105469 C 159.667969 282.101562 161.199219 281.089844 162.714844 280.035156 C 163.476562 279.527344 164.234375 278.96875 164.972656 278.417969 L 165.535156 278.007812 L 166.15625 277.507812 C 166.574219 277.167969 166.980469 276.820312 167.378906 276.476562 L 174.976562 256.433594 C 177.753906 253.753906 179.367188 249.898438 179.351562 246.027344 C 179.382812 242.078125 177.789062 238.140625 175.03125 235.300781 Z M 175.03125 235.300781 "
        fill-opacity="1" fill-rule="nonzero" />
    <path fill="#ff914d"
        d="M 96.53125 251.289062 L 95.023438 258.050781 C 94.371094 260.976562 96.011719 263.921875 98.84375 264.898438 C 109.632812 268.621094 135.9375 277.410156 157.085938 282.128906 C 178.296875 286.855469 206.960938 290.867188 218.699219 292.417969 C 221.726562 292.820312 224.554688 290.84375 225.21875 287.863281 L 228.015625 275.3125 C 228.746094 272.042969 226.605469 268.824219 223.304688 268.230469 L 103.316406 246.777344 C 100.210938 246.21875 97.21875 248.210938 96.53125 251.289062 Z M 96.53125 251.289062 "
        fill-opacity="1" fill-rule="nonzero" />
    <path fill="#ff914d"
        d="M 96.84375 248.109375 L 95.335938 254.871094 C 94.683594 257.796875 96.328125 260.742188 99.160156 261.71875 C 109.945312 265.441406 136.253906 274.230469 157.402344 278.945312 C 178.613281 283.679688 207.277344 287.683594 219.015625 289.242188 C 222.042969 289.640625 224.871094 287.664062 225.53125 284.679688 L 228.332031 272.128906 C 229.058594 268.859375 226.917969 265.640625 223.621094 265.050781 L 103.628906 243.597656 C 100.523438 243.039062 97.53125 245.03125 96.84375 248.109375 Z M 96.84375 248.109375 "
        fill-opacity="1" fill-rule="nonzero" />
    <path fill="#2b2b2b"
        d="M 102.265625 247.71875 C 100.035156 247.71875 98.046875 249.257812 97.542969 251.515625 L 96.035156 258.273438 C 95.5 260.6875 96.851562 263.109375 99.183594 263.914062 C 109.605469 267.511719 136.128906 276.382812 157.3125 281.109375 C 178.5625 285.851562 207.417969 289.875 218.835938 291.386719 C 221.34375 291.714844 223.652344 290.105469 224.203125 287.636719 L 227.003906 275.082031 C 227.292969 273.78125 227.046875 272.449219 226.304688 271.339844 C 225.566406 270.226562 224.433594 269.488281 223.121094 269.253906 L 103.128906 247.800781 C 102.84375 247.742188 102.554688 247.71875 102.265625 247.71875 Z M 219.496094 293.507812 C 219.191406 293.507812 218.878906 293.488281 218.566406 293.445312 C 207.117188 291.933594 178.191406 287.894531 156.859375 283.136719 C 135.570312 278.386719 108.957031 269.488281 98.507812 265.878906 C 95.175781 264.726562 93.238281 261.265625 94.007812 257.820312 L 95.515625 251.058594 C 96.328125 247.425781 99.832031 245.089844 103.5 245.746094 L 223.492188 267.199219 C 225.367188 267.53125 226.980469 268.59375 228.039062 270.179688 C 229.097656 271.769531 229.449219 273.667969 229.035156 275.527344 L 226.234375 288.082031 C 225.515625 291.308594 222.707031 293.507812 219.496094 293.507812 Z M 219.496094 293.507812 "
        fill-opacity="1" fill-rule="nonzero" />
    <path fill="#ff914d"
        d="M 238.59375 268.1875 C 235.941406 279.304688 222.871094 282.929688 208.226562 283.277344 C 186.539062 283.789062 161.386719 277.152344 161.386719 277.152344 C 161.386719 277.152344 135.789062 272.472656 116.390625 262.792969 C 108.683594 258.949219 101.945312 254.316406 98.179688 248.871094 C 95.539062 245.054688 94.347656 240.84375 95.3125 236.226562 C 99.714844 214.96875 133.242188 164.15625 148.75 141.46875 C 153.507812 134.5 156.566406 130.1875 156.566406 130.1875 L 191.878906 140.4375 L 228.214844 146.164062 C 228.214844 146.164062 245.1875 240.59375 238.59375 268.1875 Z M 238.59375 268.1875 "
        fill-opacity="1" fill-rule="nonzero" />
    <path fill="#ff914d"
        d="M 166.214844 160.707031 C 166.214844 160.707031 160.578125 165.382812 155.675781 173.394531 C 150.777344 181.40625 130.238281 199.773438 122.363281 203.277344 C 114.496094 206.78125 97.167969 239.679688 98.628906 246.679688 C 98.835938 247.671875 98.652344 248.375 98.179688 248.867188 C 95.539062 245.050781 94.347656 240.839844 95.3125 236.222656 C 99.714844 214.96875 133.242188 164.152344 148.75 141.464844 Z M 166.214844 160.707031 "
        fill-opacity="1" fill-rule="nonzero" />
    <path fill="#2b2b2b"
        d="M 236.339844 267.648438 C 237.324219 262.960938 237.640625 257.90625 237.808594 252.882812 C 237.953125 247.839844 237.863281 242.757812 237.664062 237.675781 C 237.238281 227.503906 236.390625 217.324219 235.363281 207.160156 C 234.316406 196.992188 233.082031 186.839844 231.710938 176.703125 C 230.339844 166.570312 228.84375 156.4375 227.1875 146.351562 L 228.054688 147.195312 L 191.722656 141.464844 L 191.660156 141.457031 L 191.597656 141.4375 L 156.28125 131.183594 L 157.417969 130.789062 C 147.59375 144.910156 138.085938 159.273438 128.933594 173.839844 C 124.371094 181.132812 119.902344 188.484375 115.613281 195.929688 C 111.355469 203.386719 107.199219 210.910156 103.554688 218.644531 C 101.730469 222.503906 100 226.417969 98.621094 230.40625 C 98.253906 231.394531 97.984375 232.40625 97.660156 233.40625 C 97.347656 234.402344 97.152344 235.410156 96.894531 236.414062 C 96.527344 238.339844 96.507812 240.273438 96.902344 242.160156 C 97.757812 245.933594 100.210938 249.304688 103.210938 252.082031 C 106.222656 254.878906 109.730469 257.222656 113.417969 259.257812 C 117.101562 261.304688 120.980469 263.050781 124.902344 264.671875 C 128.847656 266.261719 132.875 267.664062 136.941406 268.964844 C 141.007812 270.257812 145.125 271.410156 149.265625 272.460938 C 153.398438 273.503906 157.601562 274.460938 161.742188 275.238281 L 161.808594 275.25 L 161.886719 275.269531 C 165.199219 276.097656 168.617188 276.828125 172.007812 277.492188 C 175.410156 278.15625 178.824219 278.75 182.25 279.25 C 189.09375 280.273438 195.984375 280.957031 202.851562 281.113281 C 206.28125 281.183594 209.707031 281.144531 213.089844 280.835938 C 216.46875 280.539062 219.8125 280.027344 222.996094 279.132812 C 226.164062 278.226562 229.167969 276.910156 231.585938 275.011719 C 234.015625 273.132812 235.613281 270.554688 236.339844 267.648438 Z M 240.847656 268.722656 C 239.894531 272.597656 237.53125 276.226562 234.390625 278.578125 C 231.273438 280.972656 227.726562 282.433594 224.183594 283.421875 C 220.621094 284.378906 217.023438 284.894531 213.445312 285.179688 C 209.859375 285.46875 206.289062 285.476562 202.738281 285.378906 C 195.632812 285.152344 188.59375 284.386719 181.628906 283.28125 C 178.148438 282.742188 174.679688 282.109375 171.226562 281.402344 C 167.765625 280.691406 164.351562 279.9375 160.894531 279.035156 L 161.039062 279.070312 C 156.722656 278.21875 152.527344 277.21875 148.320312 276.117188 C 144.121094 275.015625 139.949219 273.8125 135.816406 272.453125 C 131.683594 271.097656 127.585938 269.628906 123.554688 267.960938 C 119.53125 266.261719 115.558594 264.425781 111.726562 262.253906 C 107.898438 260.09375 104.199219 257.597656 100.921875 254.503906 C 99.304688 252.933594 97.746094 251.253906 96.511719 249.285156 C 95.277344 247.332031 94.230469 245.183594 93.757812 242.835938 C 93.277344 240.5 93.332031 238.058594 93.800781 235.757812 C 94.085938 234.679688 94.316406 233.570312 94.65625 232.515625 C 95.003906 231.46875 95.304688 230.398438 95.691406 229.375 C 97.167969 225.230469 98.964844 221.265625 100.855469 217.355469 C 104.625 209.535156 108.878906 202.003906 113.226562 194.539062 C 117.601562 187.09375 122.148438 179.757812 126.789062 172.484375 C 136.097656 157.953125 145.742188 143.664062 155.71875 129.582031 L 155.722656 129.582031 L 156.148438 128.976562 L 156.859375 129.183594 L 192.175781 139.4375 L 192.046875 139.40625 L 228.378906 145.132812 L 229.105469 145.25 L 229.238281 145.976562 C 231.128906 156.0625 232.855469 166.164062 234.464844 176.292969 C 236.070312 186.421875 237.542969 196.574219 238.828125 206.761719 C 240.09375 216.949219 241.179688 227.167969 241.851562 237.453125 C 242.167969 242.597656 242.378906 247.761719 242.351562 252.957031 C 242.304688 258.164062 242.074219 263.394531 240.847656 268.722656 Z M 240.847656 268.722656 "
        fill-opacity="1" fill-rule="nonzero" />
    <path fill="#ffffff"
        d="M 212.738281 173.785156 C 212.738281 173.785156 214.203125 218.546875 238.464844 229.5 L 238.46875 229.5 C 236.628906 207.121094 233.003906 182.238281 230.46875 166.335938 C 223.976562 168.730469 212.738281 173.785156 212.738281 173.785156 Z M 212.738281 173.785156 "
        fill-opacity="1" fill-rule="nonzero" />
    <path fill="#2b2b2b"
        d="M 213.808594 174.445312 C 214.125 179.96875 216.976562 216.800781 237.277344 227.753906 C 235.46875 206.667969 232.183594 183.8125 229.640625 167.761719 C 224.117188 169.875 216.117188 173.414062 213.808594 174.445312 Z M 239.625 230.859375 L 238.035156 230.449219 C 213.46875 219.355469 211.757812 175.675781 211.695312 173.820312 L 211.671875 173.125 L 212.308594 172.839844 C 212.417969 172.789062 223.65625 167.738281 230.109375 165.363281 L 231.292969 164.925781 L 231.492188 166.171875 C 234.136719 182.765625 237.675781 207.207031 239.503906 229.414062 Z M 239.625 230.859375 "
        fill-opacity="1" fill-rule="nonzero" />
    <path fill="#ffffff"
        d="M 160.195312 158.609375 C 160.195312 158.609375 139.84375 198.5 113.234375 198.109375 L 113.226562 198.105469 C 124.402344 178.628906 138.257812 157.644531 147.308594 144.332031 C 152.171875 149.253906 160.195312 158.609375 160.195312 158.609375 Z M 160.195312 158.609375 "
        fill-opacity="1" fill-rule="nonzero" />
    <path fill="#2b2b2b"
        d="M 147.453125 145.96875 C 138.328125 159.421875 125.644531 178.714844 115.042969 197.03125 C 138.078125 195.746094 156.3125 163.613281 158.945312 158.746094 C 157.289062 156.832031 151.558594 150.230469 147.453125 145.96875 Z M 113.628906 199.148438 C 113.488281 199.148438 113.355469 199.148438 113.214844 199.144531 L 113.027344 199.125 L 111.613281 198.84375 L 112.324219 197.589844 C 123.414062 178.265625 137 157.644531 146.449219 143.75 L 147.160156 142.703125 L 148.046875 143.601562 C 152.878906 148.496094 160.902344 157.839844 160.984375 157.933594 L 161.4375 158.460938 L 161.121094 159.082031 C 160.28125 160.722656 140.371094 199.148438 113.628906 199.148438 Z M 113.628906 199.148438 "
        fill-opacity="1" fill-rule="nonzero" />
    <path fill="#ff914d"
        d="M 219.910156 230.878906 L 208.226562 283.273438 C 186.542969 283.785156 161.390625 277.152344 161.390625 277.152344 C 161.390625 277.152344 140.371094 273.308594 121.996094 265.386719 C 120.09375 264.5625 118.214844 263.695312 116.394531 262.789062 L 128.078125 210.390625 C 129.171875 205.484375 134.035156 202.40625 138.925781 203.5 L 149.449219 205.847656 L 213.019531 220.027344 C 217.921875 221.121094 221.003906 225.972656 219.910156 230.878906 Z M 219.910156 230.878906 "
        fill-opacity="1" fill-rule="nonzero" />
    <path fill="#ff914d"
        d="M 153.5 208.085938 C 153.5 208.085938 136.332031 204.78125 133.464844 211.457031 C 131.0625 217.054688 124.175781 253.640625 121.996094 265.386719 C 120.089844 264.5625 118.210938 263.695312 116.390625 262.789062 L 128.074219 210.390625 C 129.171875 205.484375 134.03125 202.40625 138.921875 203.5 L 149.449219 205.847656 Z M 153.5 208.085938 "
        fill-opacity="1" fill-rule="nonzero" />
    <path fill="#2b2b2b"
        d="M 218.640625 230.589844 C 218.921875 229.210938 218.882812 227.753906 218.410156 226.417969 C 217.976562 225.074219 217.132812 223.875 216.070312 222.960938 C 215.53125 222.503906 214.925781 222.132812 214.289062 221.828125 C 213.964844 221.703125 213.640625 221.546875 213.300781 221.460938 L 212.789062 221.316406 L 212.195312 221.179688 L 207.371094 220.105469 L 188.078125 215.800781 L 149.492188 207.195312 L 139.84375 205.042969 L 138.640625 204.773438 C 138.289062 204.730469 137.945312 204.625 137.59375 204.621094 C 136.886719 204.539062 136.183594 204.621094 135.488281 204.726562 C 134.796875 204.867188 134.125 205.09375 133.488281 205.402344 C 132.867188 205.738281 132.257812 206.105469 131.742188 206.59375 C 131.226562 207.070312 130.75 207.601562 130.382812 208.203125 C 129.996094 208.792969 129.710938 209.445312 129.503906 210.121094 L 129.363281 210.632812 L 129.226562 211.226562 L 128.957031 212.429688 L 128.417969 214.84375 L 126.257812 224.488281 L 121.863281 243.761719 L 119.660156 253.398438 L 117.402344 263.023438 L 116.851562 261.867188 C 120.367188 263.574219 123.953125 265.148438 127.613281 266.546875 C 131.28125 267.929688 134.988281 269.230469 138.742188 270.375 C 142.496094 271.527344 146.277344 272.59375 150.085938 273.558594 C 153.894531 274.515625 157.742188 275.398438 161.570312 276.140625 L 161.613281 276.144531 L 161.648438 276.15625 C 165.429688 277.117188 169.289062 277.949219 173.140625 278.699219 C 177 279.445312 180.875 280.089844 184.765625 280.640625 C 188.652344 281.199219 192.558594 281.59375 196.464844 281.902344 C 200.375 282.195312 204.289062 282.292969 208.195312 282.242188 L 207.207031 283.054688 L 210.023438 269.929688 L 212.890625 256.820312 Z M 221.183594 231.160156 L 215.242188 257.335938 L 212.265625 270.425781 L 209.238281 283.5 L 209.050781 284.3125 L 208.25 284.3125 C 204.261719 284.367188 200.28125 284.261719 196.316406 283.96875 C 192.355469 283.65625 188.40625 283.253906 184.480469 282.691406 C 180.550781 282.132812 176.640625 281.480469 172.75 280.730469 C 168.855469 279.972656 164.992188 279.140625 161.121094 278.15625 L 161.199219 278.175781 C 157.28125 277.417969 153.429688 276.53125 149.585938 275.5625 C 145.742188 274.589844 141.925781 273.519531 138.132812 272.351562 C 134.335938 271.191406 130.589844 269.882812 126.871094 268.480469 C 123.160156 267.0625 119.511719 265.460938 115.925781 263.71875 L 115.199219 263.382812 L 115.375 262.5625 L 117.417969 252.890625 L 119.519531 243.234375 L 123.726562 223.917969 L 125.875 214.269531 L 126.410156 211.859375 L 126.679688 210.652344 L 126.816406 210.042969 L 127.003906 209.363281 C 127.277344 208.460938 127.660156 207.589844 128.179688 206.800781 C 128.671875 205.996094 129.300781 205.285156 129.996094 204.652344 C 130.6875 204.007812 131.492188 203.503906 132.320312 203.066406 C 133.167969 202.652344 134.066406 202.351562 134.992188 202.164062 C 135.917969 202.011719 136.867188 201.917969 137.804688 202.023438 C 138.277344 202.035156 138.734375 202.160156 139.199219 202.226562 L 140.410156 202.496094 L 150.054688 204.648438 L 188.640625 213.257812 L 207.9375 217.558594 L 212.757812 218.636719 L 213.371094 218.773438 L 214.050781 218.960938 C 214.503906 219.082031 214.9375 219.277344 215.371094 219.453125 C 216.222656 219.855469 217.03125 220.359375 217.75 220.964844 C 219.179688 222.191406 220.296875 223.792969 220.878906 225.585938 C 221.507812 227.367188 221.570312 229.320312 221.183594 231.160156 Z M 221.183594 231.160156 "
        fill-opacity="1" fill-rule="nonzero" />
    <path fill="#2b2b2b"
        d="M 110.246094 315.59375 C 100.28125 286.410156 78.121094 282.941406 77.179688 282.8125 L 77.746094 278.722656 C 78.785156 278.863281 103.332031 282.566406 114.152344 314.257812 Z M 110.246094 315.59375 "
        fill-opacity="1" fill-rule="nonzero" />
    <path fill="#2b2b2b"
        d="M 184.660156 324.949219 L 181.726562 322.042969 C 182.464844 321.296875 200.15625 303.878906 232.003906 314.242188 L 230.722656 318.167969 C 201.398438 308.628906 185.328125 324.273438 184.660156 324.949219 Z M 184.660156 324.949219 "
        fill-opacity="1" fill-rule="nonzero" />
    <path fill="#ff914d"
        d="M 86.644531 342.613281 C 79.425781 350.425781 67.910156 346.375 56.28125 335.644531 C 54.792969 334.265625 53.367188 332.847656 52.050781 331.398438 C 46 324.8125 41.863281 317.6875 41.6875 311.660156 C 41.597656 308.695312 42.472656 305.996094 44.542969 303.75 C 48.488281 299.46875 54.847656 298.246094 61.703125 299.761719 C 67.382812 301.023438 73.386719 304.164062 78.648438 309.027344 C 80.191406 310.453125 81.589844 311.949219 82.847656 313.503906 C 91.039062 323.628906 92.894531 335.839844 86.644531 342.613281 Z M 86.644531 342.613281 "
        fill-opacity="1" fill-rule="nonzero" />
    <path fill="#f6f4f1"
        d="M 61.703125 299.765625 C 60.921875 299.945312 46.195312 303.386719 41.6875 311.660156 C 41.597656 308.695312 42.472656 305.996094 44.542969 303.75 C 48.488281 299.472656 54.847656 298.246094 61.703125 299.765625 Z M 61.703125 299.765625 "
        fill-opacity="1" fill-rule="nonzero" />
    <path fill="#ff914d"
        d="M 86.644531 342.613281 C 79.425781 350.425781 67.910156 346.375 56.28125 335.644531 C 54.792969 334.265625 53.367188 332.847656 52.050781 331.398438 C 58.1875 334.929688 65.050781 335.632812 69.011719 336.816406 C 80.820312 340.34375 82.847656 313.503906 82.847656 313.503906 C 91.039062 323.628906 92.894531 335.839844 86.644531 342.613281 Z M 86.644531 342.613281 "
        fill-opacity="1" fill-rule="nonzero" />
    <g clip-path="url(#b06c864c9e)">
        <path fill="#2b2b2b"
            d="M 85.15625 341.242188 C 86.964844 339.355469 88.09375 336.824219 88.417969 334.070312 C 88.773438 331.320312 88.410156 328.421875 87.628906 325.628906 C 86.027344 320.019531 82.707031 314.835938 78.476562 310.617188 C 74.261719 306.378906 69.070312 302.980469 63.34375 301.28125 C 60.492188 300.433594 57.5 300.015625 54.585938 300.269531 C 51.679688 300.511719 48.851562 301.488281 46.660156 303.289062 C 45.570312 304.199219 44.644531 305.273438 44 306.476562 C 43.335938 307.679688 43.027344 309.046875 42.9375 310.425781 C 42.792969 313.214844 43.664062 316.074219 44.914062 318.71875 C 46.175781 321.378906 47.847656 323.875 49.710938 326.21875 C 51.585938 328.554688 53.648438 330.761719 55.847656 332.820312 C 58.042969 334.886719 60.359375 336.824219 62.769531 338.566406 C 65.183594 340.304688 67.726562 341.847656 70.378906 342.949219 C 73.023438 344.039062 75.789062 344.667969 78.375 344.503906 C 80.953125 344.300781 83.289062 343.164062 85.15625 341.242188 Z M 88.125 343.984375 L 87.179688 344.90625 C 86.855469 345.214844 86.558594 345.539062 86.179688 345.789062 C 85.453125 346.316406 84.742188 346.871094 83.90625 347.25 C 83.496094 347.441406 83.113281 347.699219 82.675781 347.832031 L 81.382812 348.269531 C 80.953125 348.433594 80.5 348.472656 80.058594 348.5625 C 79.613281 348.625 79.164062 348.738281 78.71875 348.753906 C 75.125 349.007812 71.746094 348.046875 68.757812 346.699219 C 65.75 345.335938 63.039062 343.558594 60.507812 341.625 C 57.984375 339.671875 55.609375 337.578125 53.410156 335.316406 C 49.015625 330.800781 45.027344 325.769531 42.398438 319.863281 C 41.136719 316.914062 40.214844 313.652344 40.496094 310.253906 C 40.65625 308.566406 41.125 306.875 41.96875 305.378906 C 42.8125 303.875 43.96875 302.605469 45.269531 301.566406 C 47.914062 299.496094 51.183594 298.414062 54.410156 298.171875 C 57.652344 297.925781 60.875 298.390625 63.933594 299.269531 C 70.058594 301.082031 75.582031 304.496094 80.234375 308.800781 C 82.566406 310.957031 84.644531 313.386719 86.460938 316.027344 C 88.269531 318.667969 89.765625 321.558594 90.804688 324.652344 C 91.839844 327.742188 92.386719 331.074219 92.089844 334.46875 C 91.828125 337.847656 90.507812 341.3125 88.125 343.984375 Z M 88.125 343.984375 "
            fill-opacity="1" fill-rule="nonzero" />
    </g>
    <path fill="#ff914d"
        d="M 247.515625 359.855469 C 244.160156 365.527344 235.964844 369.398438 225.175781 371.382812 C 209.613281 374.242188 194.542969 372.09375 192.617188 361.640625 C 191.28125 354.378906 196.191406 346.960938 204.523438 342.148438 C 204.53125 342.140625 204.53125 342.140625 204.53125 342.140625 C 208.207031 340.019531 212.550781 338.394531 217.3125 337.523438 C 232.875 334.664062 247.042969 340.824219 248.960938 351.277344 C 249.550781 354.480469 249.011719 357.351562 247.515625 359.855469 Z M 247.515625 359.855469 "
        fill-opacity="1" fill-rule="nonzero" />
    <path fill="#ff914d"
        d="M 247.515625 359.855469 C 244.160156 365.527344 235.964844 369.398438 225.175781 371.382812 C 209.613281 374.242188 194.542969 372.09375 192.617188 361.640625 C 191.28125 354.378906 196.191406 346.960938 204.523438 342.148438 C 204.378906 342.578125 198.234375 360.640625 219.34375 363.28125 C 231.757812 364.828125 241.515625 362.273438 247.515625 359.855469 Z M 247.515625 359.855469 "
        fill-opacity="1" fill-rule="nonzero" />
    <path fill="#2b2b2b"
        d="M 247.609375 351.527344 C 247.152344 348.800781 245.714844 346.253906 243.625 344.273438 C 241.554688 342.273438 238.945312 340.773438 236.167969 339.75 C 230.574219 337.683594 224.34375 337.4375 218.445312 338.460938 C 212.542969 339.488281 206.777344 341.722656 202.101562 345.355469 C 199.777344 347.164062 197.722656 349.3125 196.25 351.757812 C 194.773438 354.191406 193.945312 356.949219 194.082031 359.644531 C 194.164062 360.996094 194.460938 362.308594 195.011719 363.460938 C 195.554688 364.621094 196.394531 365.617188 197.386719 366.46875 C 199.40625 368.171875 202.121094 369.191406 204.929688 369.785156 C 207.753906 370.378906 210.714844 370.585938 213.683594 370.542969 C 216.65625 370.492188 219.644531 370.238281 222.613281 369.789062 C 228.53125 368.867188 234.480469 367.507812 239.632812 364.765625 C 242.179688 363.386719 244.492188 361.609375 246.019531 359.339844 C 247.535156 357.070312 248.042969 354.300781 247.609375 351.527344 Z M 250.320312 351.03125 L 250.488281 352.292969 C 250.539062 352.714844 250.621094 353.132812 250.59375 353.566406 C 250.585938 354.421875 250.601562 355.285156 250.410156 356.140625 C 250.1875 357.867188 249.46875 359.492188 248.617188 360.984375 C 246.773438 363.910156 244.128906 366.09375 241.335938 367.757812 C 238.527344 369.433594 235.523438 370.621094 232.480469 371.578125 C 229.4375 372.527344 226.34375 373.242188 223.21875 373.726562 C 216.96875 374.679688 210.515625 374.972656 204.089844 373.5625 C 202.492188 373.1875 200.902344 372.6875 199.355469 371.996094 C 197.820312 371.292969 196.304688 370.421875 194.988281 369.230469 C 193.683594 368.046875 192.539062 366.582031 191.828125 364.921875 C 191.101562 363.257812 190.777344 361.492188 190.734375 359.765625 C 190.675781 356.269531 191.859375 352.910156 193.675781 350.152344 C 195.496094 347.371094 197.875 345.078125 200.480469 343.191406 C 205.730469 339.453125 211.84375 337.207031 218.09375 336.261719 C 224.34375 335.339844 230.824219 335.664062 236.898438 337.71875 C 239.914062 338.769531 242.835938 340.285156 245.292969 342.492188 C 247.753906 344.660156 249.648438 347.675781 250.320312 351.03125 Z M 250.320312 351.03125 "
        fill-opacity="1" fill-rule="nonzero" />
    <path fill="#2b2b2b"
        d="M 270.515625 199.605469 C 252.316406 189.25 259.371094 165.601562 259.445312 165.367188 L 262.070312 166.175781 C 261.796875 167.0625 255.605469 187.957031 271.875 197.21875 Z M 270.515625 199.605469 "
        fill-opacity="1" fill-rule="nonzero" />
    <path fill="#2b2b2b"
        d="M 100.359375 159.523438 L 100.019531 156.796875 C 115.902344 154.828125 123.546875 133.804688 123.621094 133.59375 L 126.210938 134.511719 C 125.882812 135.445312 117.933594 157.34375 100.359375 159.523438 Z M 100.359375 159.523438 "
        fill-opacity="1" fill-rule="nonzero" />
    <path fill="#ff914d"
        d="M 153.503906 225.191406 C 153.503906 230.722656 149.019531 235.210938 143.488281 235.210938 C 142.484375 235.210938 141.515625 235.066406 140.601562 234.789062 C 136.472656 233.550781 133.46875 229.71875 133.46875 225.1875 C 133.46875 220.152344 137.183594 216 142.015625 215.285156 C 142.492188 215.207031 142.992188 215.175781 143.488281 215.175781 C 149.019531 215.175781 153.503906 219.65625 153.503906 225.191406 Z M 153.503906 225.191406 "
        fill-opacity="1" fill-rule="nonzero" />
    <path fill="#ff914d"
        d="M 153.503906 225.191406 C 153.503906 230.722656 149.019531 235.210938 143.488281 235.210938 C 142.484375 235.210938 141.515625 235.066406 140.601562 234.789062 C 148.148438 227.757812 144.148438 218.859375 142.015625 215.285156 C 142.492188 215.207031 142.992188 215.175781 143.488281 215.175781 C 149.019531 215.175781 153.503906 219.65625 153.503906 225.191406 Z M 153.503906 225.191406 "
        fill-opacity="1" fill-rule="nonzero" />
    <path fill="#2b2b2b"
        d="M 143.488281 216.210938 C 138.535156 216.210938 134.507812 220.242188 134.507812 225.191406 C 134.507812 230.140625 138.539062 234.167969 143.488281 234.167969 C 148.4375 234.167969 152.464844 230.140625 152.464844 225.191406 C 152.464844 220.238281 148.4375 216.210938 143.488281 216.210938 Z M 143.488281 236.246094 C 137.390625 236.246094 132.429688 231.289062 132.429688 225.191406 C 132.429688 219.09375 137.390625 214.132812 143.488281 214.132812 C 149.585938 214.132812 154.542969 219.09375 154.542969 225.191406 C 154.542969 231.289062 149.582031 236.246094 143.488281 236.246094 Z M 143.488281 236.246094 "
        fill-opacity="1" fill-rule="nonzero" />
    <path fill="#ff914d"
        d="M 112.53125 61.613281 L 121.175781 20.796875 L 125.921875 21.542969 L 120.503906 58.023438 Z M 112.53125 61.613281 "
        fill-opacity="1" fill-rule="nonzero" />
    <path fill="#2b2b2b"
        d="M 121.988281 21.976562 L 113.976562 59.828125 L 119.5625 57.3125 L 124.746094 22.410156 Z M 111.09375 63.402344 L 120.363281 19.617188 L 127.101562 20.679688 L 121.445312 58.738281 Z M 111.09375 63.402344 "
        fill-opacity="1" fill-rule="nonzero" />
    <path fill="#ff914d"
        d="M 120.242188 124.734375 C 120.242188 124.734375 119.117188 124.3125 117.441406 123.585938 C 114.007812 122.09375 108.304688 119.316406 105.367188 116.246094 C 100.992188 111.671875 103.285156 75.105469 105.25 68.695312 C 106.386719 64.960938 113.347656 60.84375 118.941406 58.0625 C 122.933594 56.078125 126.234375 54.773438 126.234375 54.773438 Z M 120.242188 124.734375 "
        fill-opacity="1" fill-rule="nonzero" />
    <path fill="#ff914d"
        d="M 120.242188 124.734375 C 120.242188 124.734375 119.117188 124.3125 117.441406 123.585938 C 101.890625 105.269531 116.570312 60.746094 116.570312 60.746094 L 118.941406 58.058594 C 122.933594 56.078125 126.234375 54.773438 126.234375 54.773438 Z M 120.242188 124.734375 "
        fill-opacity="1" fill-rule="nonzero" />
    <path fill="#2b2b2b"
        d="M 126.617188 55.734375 C 123.207031 57.246094 119.804688 58.902344 116.570312 60.746094 C 114.949219 61.667969 113.378906 62.660156 111.871094 63.703125 C 110.382812 64.753906 108.949219 65.898438 107.847656 67.167969 C 107.3125 67.800781 106.878906 68.480469 106.691406 69.078125 C 106.46875 69.8125 106.3125 70.757812 106.167969 71.644531 C 105.890625 73.464844 105.695312 75.328125 105.523438 77.195312 C 105.160156 80.929688 104.921875 84.691406 104.769531 88.449219 C 104.601562 92.210938 104.515625 95.976562 104.5625 99.722656 C 104.621094 103.464844 104.738281 107.230469 105.253906 110.820312 C 105.324219 111.265625 105.382812 111.714844 105.480469 112.140625 L 105.609375 112.789062 L 105.773438 113.402344 C 105.820312 113.613281 105.886719 113.800781 105.953125 113.984375 C 106.023438 114.15625 106.074219 114.382812 106.15625 114.511719 C 106.234375 114.644531 106.300781 114.847656 106.375 114.933594 C 106.410156 114.976562 106.441406 115.023438 106.46875 115.074219 L 106.511719 115.148438 L 106.621094 115.257812 C 107.777344 116.472656 109.257812 117.546875 110.777344 118.546875 C 113.851562 120.523438 117.222656 122.238281 120.605469 123.761719 L 119.882812 125.707031 C 118.023438 125.105469 116.25 124.402344 114.472656 123.632812 C 112.699219 122.871094 110.957031 122.015625 109.257812 121.03125 C 107.558594 120.042969 105.898438 118.9375 104.371094 117.46875 L 104.226562 117.332031 L 104.054688 117.125 L 103.722656 116.691406 C 103.511719 116.398438 103.414062 116.148438 103.261719 115.867188 C 103.105469 115.589844 103.042969 115.34375 102.933594 115.082031 C 102.832031 114.820312 102.738281 114.558594 102.675781 114.3125 L 102.457031 113.554688 L 102.289062 112.8125 C 102.167969 112.3125 102.089844 111.824219 102 111.335938 C 101.664062 109.378906 101.511719 107.445312 101.382812 105.519531 C 101.261719 103.59375 101.203125 101.671875 101.191406 99.753906 C 101.164062 95.921875 101.261719 92.101562 101.453125 88.289062 C 101.660156 84.476562 101.945312 80.667969 102.359375 76.863281 C 102.582031 74.957031 102.832031 73.054688 103.167969 71.136719 C 103.359375 70.160156 103.515625 69.230469 103.863281 68.152344 C 104.285156 66.949219 104.964844 66.046875 105.660156 65.25 C 107.085938 63.683594 108.6875 62.5 110.3125 61.402344 C 111.941406 60.316406 113.632812 59.367188 115.34375 58.476562 C 118.769531 56.703125 122.25 55.148438 125.859375 53.792969 Z M 126.617188 55.734375 "
        fill-opacity="1" fill-rule="nonzero" />
    <path fill="#ff914d"
        d="M 305.070312 96.679688 L 311.371094 55.433594 L 306.664062 54.460938 L 298.875 90.511719 Z M 305.070312 96.679688 "
        fill-opacity="1" fill-rule="nonzero" />
    <path fill="#2b2b2b"
        d="M 300.007812 90.175781 L 304.351562 94.496094 L 310.195312 56.253906 L 307.460938 55.6875 Z M 305.785156 98.859375 L 297.738281 90.84375 L 305.867188 53.234375 L 312.546875 54.617188 Z M 305.785156 98.859375 "
        fill-opacity="1" fill-rule="nonzero" />
    <path fill="#ff914d"
        d="M 292.507812 150.332031 C 290.128906 151.476562 286.78125 152.132812 283.695312 152.511719 C 279.394531 153.039062 275.59375 153.03125 275.59375 153.03125 L 294.65625 85.445312 C 294.65625 85.445312 297.929688 88.414062 301.394531 92.277344 C 305.382812 96.707031 309.613281 102.300781 309.386719 105.875 C 308.964844 112.5625 298.21875 147.59375 292.507812 150.332031 Z M 292.507812 150.332031 "
        fill-opacity="1" fill-rule="nonzero" />
    <path fill="#ff914d"
        d="M 283.695312 152.511719 C 279.394531 153.039062 275.59375 153.03125 275.59375 153.03125 L 294.65625 85.445312 C 294.65625 85.445312 297.929688 88.414062 301.394531 92.277344 C 301.105469 99.65625 299.007812 131.867188 283.695312 152.511719 Z M 283.695312 152.511719 "
        fill-opacity="1" fill-rule="nonzero" />
    <path fill="#2b2b2b"
        d="M 275.59375 154.070312 L 275.597656 151.992188 C 275.710938 151.992188 286.640625 151.996094 292.058594 149.394531 C 296.925781 147.058594 307.875 113.285156 308.351562 105.8125 C 308.671875 100.742188 298.070312 89.945312 293.957031 86.210938 L 295.351562 84.671875 C 296.941406 86.113281 310.867188 98.960938 310.425781 105.941406 C 310.015625 112.402344 299.316406 148.21875 292.960938 151.265625 C 287.109375 154.078125 276.0625 154.074219 275.59375 154.070312 Z M 275.59375 154.070312 "
        fill-opacity="1" fill-rule="nonzero" />
    <path fill="#ff914d"
        d="M 275.625 152.960938 C 274.839844 153.859375 274.039062 154.734375 273.203125 155.585938 C 271.363281 157.5 269.394531 159.292969 267.3125 160.984375 C 262.882812 164.570312 257.953125 167.648438 252.519531 170.183594 C 236.289062 177.75 215.640625 180.402344 190.988281 176.898438 C 166.695312 171.488281 148.300781 161.726562 135.785156 148.921875 C 131.597656 144.632812 128.0625 140.011719 125.183594 135.09375 C 124.988281 134.769531 124.804688 134.441406 124.621094 134.113281 C 110.09375 108.324219 114.042969 74.695312 132.695312 39.121094 C 138.183594 28.664062 145.691406 20.722656 154.484375 14.949219 C 173.632812 2.371094 198.863281 0.046875 222.4375 4.226562 C 241.921875 7.875 260.894531 16.082031 274.507812 29.324219 C 284.882812 39.402344 292.144531 52.410156 294.132812 68.527344 C 294.882812 74.582031 295.3125 80.476562 295.445312 86.1875 C 296.121094 113.625 289.6875 136.761719 275.625 152.960938 Z M 275.625 152.960938 "
        fill-opacity="1" fill-rule="nonzero" />
    <path fill="#f6f4f1"
        d="M 274.507812 29.324219 C 264.082031 22.835938 246.890625 14.835938 219.535156 10.019531 C 193.410156 5.425781 170.238281 9.890625 154.484375 14.949219 C 173.636719 2.371094 198.867188 0.046875 222.441406 4.226562 C 241.921875 7.878906 260.898438 16.085938 274.507812 29.324219 Z M 274.507812 29.324219 "
        fill-opacity="1" fill-rule="nonzero" />
    <path fill="#ff914d"
        d="M 273.203125 155.585938 C 271.363281 157.5 269.394531 159.292969 267.3125 160.984375 C 262.882812 164.570312 257.953125 167.648438 252.519531 170.183594 C 236.289062 177.75 215.640625 180.402344 190.988281 176.898438 C 166.695312 171.488281 148.300781 161.726562 135.785156 148.921875 C 131.597656 144.632812 128.0625 140.011719 125.183594 135.09375 C 124.988281 134.769531 124.804688 134.441406 124.621094 134.113281 C 121.367188 120.441406 119.777344 94.816406 133.175781 69.113281 C 155.4375 26.402344 177.429688 19.25 218.414062 26.714844 C 255.691406 33.503906 288.675781 59.972656 281.859375 118.644531 C 280.175781 133.195312 277.015625 145.425781 273.203125 155.585938 Z M 273.203125 155.585938 "
        fill-opacity="1" fill-rule="nonzero" />
    <path fill="#2b2b2b"
        d="M 274.46875 151.957031 C 280.8125 144.601562 285.417969 135.847656 288.484375 126.605469 C 290.042969 121.984375 291.15625 117.214844 291.988281 112.398438 C 292.816406 107.582031 293.371094 102.703125 293.59375 97.808594 C 294.101562 88.015625 293.589844 78.152344 292.347656 68.414062 C 291.109375 58.816406 287.738281 49.527344 282.375 41.492188 C 279.695312 37.476562 276.5625 33.761719 273.085938 30.386719 C 269.601562 27.019531 265.761719 24.015625 261.703125 21.332031 C 253.589844 15.953125 244.546875 11.992188 235.207031 9.125 C 230.53125 7.695312 225.753906 6.558594 220.945312 5.726562 C 216.128906 4.921875 211.25 4.386719 206.367188 4.15625 C 196.601562 3.722656 186.765625 4.5 177.324219 6.894531 C 172.613281 8.097656 168.011719 9.710938 163.617188 11.761719 C 159.21875 13.800781 155.074219 16.355469 151.25 19.308594 C 147.425781 22.265625 143.941406 25.664062 140.929688 29.453125 C 137.898438 33.238281 135.347656 37.335938 133.171875 41.738281 C 128.683594 50.492188 124.855469 59.59375 122.054688 69 L 121.015625 72.527344 L 120.160156 76.105469 L 119.734375 77.890625 L 119.519531 78.785156 L 119.351562 79.6875 L 118.699219 83.296875 C 118.59375 83.898438 118.476562 84.5 118.378906 85.105469 L 118.164062 86.925781 L 117.726562 90.566406 C 117.597656 91.78125 117.574219 93 117.488281 94.21875 L 117.335938 96.960938 L 117.34375 97.875 C 117.394531 100.3125 117.316406 102.753906 117.597656 105.175781 C 117.710938 106.390625 117.765625 107.605469 117.914062 108.8125 C 118.101562 110.015625 118.28125 111.21875 118.453125 112.425781 C 118.546875 113.027344 118.605469 113.632812 118.726562 114.230469 L 119.113281 116.011719 C 119.378906 117.195312 119.609375 118.398438 119.90625 119.578125 L 120.96875 123.074219 C 121.152344 123.65625 121.304688 124.25 121.519531 124.820312 L 122.203125 126.519531 C 122.671875 127.640625 123.105469 128.789062 123.617188 129.894531 L 125.324219 133.136719 C 125.617188 133.671875 125.890625 134.21875 126.191406 134.75 C 126.503906 135.273438 126.824219 135.796875 127.148438 136.316406 C 127.800781 137.347656 128.480469 138.363281 129.183594 139.363281 C 132.003906 143.355469 135.25 147.042969 138.824219 150.386719 C 145.972656 157.085938 154.375 162.386719 163.277344 166.515625 C 172.199219 170.648438 181.65625 173.574219 191.261719 175.734375 L 191.167969 175.71875 C 198.691406 176.738281 206.28125 177.292969 213.847656 177.125 C 217.632812 177.070312 221.40625 176.765625 225.160156 176.339844 C 228.914062 175.886719 232.625 175.207031 236.292969 174.339844 C 239.957031 173.476562 243.550781 172.324219 247.054688 170.976562 C 250.554688 169.617188 253.964844 168.027344 257.210938 166.148438 C 263.707031 162.402344 269.59375 157.628906 274.46875 151.957031 Z M 276.773438 153.960938 C 271.628906 159.867188 265.429688 164.816406 258.640625 168.648438 C 255.253906 170.582031 251.699219 172.210938 248.0625 173.589844 C 244.421875 174.960938 240.703125 176.125 236.921875 176.988281 C 233.136719 177.851562 229.316406 178.523438 225.464844 178.960938 C 221.617188 179.367188 217.753906 179.652344 213.890625 179.683594 C 206.160156 179.804688 198.453125 179.167969 190.824219 178.101562 L 190.777344 178.09375 L 190.734375 178.085938 C 180.996094 175.855469 171.394531 172.84375 162.308594 168.589844 C 153.238281 164.335938 144.65625 158.878906 137.332031 151.960938 C 133.671875 148.507812 130.34375 144.691406 127.457031 140.566406 C 126.730469 139.535156 126.039062 138.484375 125.371094 137.417969 C 125.039062 136.882812 124.710938 136.34375 124.394531 135.800781 C 124.082031 135.253906 123.800781 134.6875 123.5 134.136719 L 121.722656 130.800781 C 121.195312 129.65625 120.703125 128.496094 120.1875 127.34375 L 119.414062 125.617188 C 119.167969 125.035156 118.980469 124.433594 118.757812 123.839844 L 117.488281 120.269531 C 117.125 119.0625 116.824219 117.835938 116.488281 116.613281 L 115.996094 114.78125 C 115.839844 114.167969 115.761719 113.539062 115.644531 112.917969 C 115.417969 111.675781 115.203125 110.425781 115 109.179688 C 114.824219 107.925781 114.753906 106.664062 114.632812 105.40625 C 114.335938 102.886719 114.402344 100.363281 114.347656 97.839844 L 114.335938 96.890625 L 114.386719 95.945312 L 114.484375 94.058594 C 114.566406 92.800781 114.589844 91.535156 114.714844 90.285156 L 115.15625 86.535156 L 115.375 84.660156 C 115.472656 84.039062 115.589844 83.421875 115.699219 82.800781 L 116.359375 79.085938 L 116.527344 78.15625 L 116.742188 77.238281 L 117.175781 75.40625 L 118.039062 71.738281 L 119.09375 68.121094 C 121.929688 58.488281 125.800781 49.203125 130.335938 40.289062 C 134.742188 31.230469 141.164062 22.925781 149.234375 16.71875 C 153.253906 13.597656 157.605469 10.902344 162.199219 8.75 C 166.792969 6.585938 171.59375 4.890625 176.492188 3.621094 C 186.308594 1.117188 196.46875 0.308594 206.523438 0.746094 C 211.554688 0.976562 216.558594 1.515625 221.527344 2.34375 C 226.5 3.199219 231.398438 4.355469 236.214844 5.824219 C 245.835938 8.765625 255.175781 12.832031 263.628906 18.417969 C 267.851562 21.207031 271.863281 24.335938 275.523438 27.859375 C 279.171875 31.394531 282.476562 35.300781 285.3125 39.539062 C 291 48.011719 294.539062 57.882812 295.816406 67.96875 C 297.078125 77.914062 297.519531 87.960938 296.953125 97.992188 C 296.703125 103.007812 296.109375 108.011719 295.230469 112.96875 C 294.34375 117.921875 293.171875 122.839844 291.53125 127.621094 C 288.304688 137.179688 283.457031 146.292969 276.773438 153.960938 Z M 276.773438 153.960938 "
        fill-opacity="1" fill-rule="nonzero" />
    <path fill="#2b2b2b"
        d="M 279.035156 125.875 C 275.734375 143.992188 266.007812 159.359375 252.527344 170.1875 C 236.296875 177.757812 215.644531 180.40625 190.996094 176.90625 C 166.695312 171.492188 148.304688 161.730469 135.785156 148.925781 C 126.984375 134.039062 123.304688 116.226562 126.601562 98.109375 C 134.046875 57.246094 174.199219 30.335938 216.292969 38.003906 C 258.382812 45.671875 286.476562 85.007812 279.035156 125.875 Z M 279.035156 125.875 "
        fill-opacity="1" fill-rule="nonzero" />
    <path fill="#f6f4f1"
        d="M 137.203125 111.980469 C 134.765625 112.160156 137.285156 131.285156 148.921875 146.105469 C 162.054688 162.832031 185.125 167.488281 185.96875 164.460938 C 187.1875 160.050781 170.417969 159.449219 155.324219 144.742188 C 142.484375 132.234375 139.890625 111.78125 137.203125 111.980469 Z M 137.203125 111.980469 "
        fill-opacity="1" fill-rule="nonzero" />
    <path fill="#f6f4f1"
        d="M 269.300781 100.089844 C 271.035156 99.75 270.96875 92.613281 268.105469 85.253906 C 265.074219 77.460938 258.167969 71.878906 256.742188 72.78125 C 255.734375 73.417969 257.304688 75.601562 261.195312 83.441406 C 266.660156 94.453125 267.71875 100.402344 269.300781 100.089844 Z M 269.300781 100.089844 "
        fill-opacity="1" fill-rule="nonzero" />
    <path fill="#f6f4f1"
        d="M 253.578125 67.160156 C 252.414062 64.84375 248.375 64.488281 247.6875 65.554688 C 247.316406 66.125 247.914062 67.101562 248.171875 67.523438 C 249.464844 69.628906 252.574219 70.707031 253.574219 69.765625 C 254.175781 69.195312 253.960938 67.925781 253.578125 67.160156 Z M 253.578125 67.160156 "
        fill-opacity="1" fill-rule="nonzero" />
</svg>